# xmcd CD database file
#
# Track frame offsets:
#	150
#	26087
#	37825
#	61725
#	78487
#	97975
#	116975
#	141962
#	178862
#	195562
#	224000
#
# Disc length: 3191 seconds
#
# Revision: 1
# Processed by: cddbd v1.5.1PL0 Copyright (c) Steve Scherf et al.
# Submitted via: CDex 1.51
#
DISCID=9c0c750b
DTITLE=Greentown Jazz Band - Ballin' The Jack
DYEAR=2005
DGENRE=Jazz
TTITLE0=Ballin' The Jack
TTITLE1=So Do I
TTITLE2=Apex Blues
TTITLE3=I Got Rythm
TTITLE4=Blue Turning Grey Over You
TTITLE5=Indiana
TTITLE6=Basin Street Blues
TTITLE7=Take Your Tomorrow
TTITLE8=Trixie Dixie
TTITLE9=You Took Advantage Of Me
TTITLE10=Air Mail Special
EXTD=YEAR: 2005
EXTT0=
EXTT1=
EXTT2=
EXTT3=
EXTT4=
EXTT5=
EXTT6=
EXTT7=
EXTT8=
EXTT9=
EXTT10=
PLAYORDER=
